<svg width="24" height="25" viewBox="0 0 24 25" fill="none" xmlns="http://www.w3.org/2000/svg">
<path d="M20.2042 15.803C20.1573 15.6343 20.2605 15.3999 20.3589 15.2311C20.389 15.1809 20.4219 15.1324 20.4573 15.0858C21.2994 13.8346 21.7498 12.3609 21.7512 10.8528C21.7652 6.53063 18.1181 3.02417 13.6085 3.02417C9.67547 3.02417 6.39402 5.70089 5.62523 9.25422C5.51022 9.78088 5.45207 10.3184 5.45178 10.8574C5.45178 15.1843 8.95824 18.7845 13.4679 18.7845C14.1851 18.7845 15.1508 18.5688 15.6805 18.4235C16.2102 18.2782 16.7353 18.086 16.8712 18.0344C17.0106 17.9819 17.1582 17.9549 17.3072 17.9547C17.4697 17.9541 17.6306 17.986 17.7806 18.0485L20.4386 18.9907C20.4969 19.0154 20.5585 19.0312 20.6214 19.0376C20.7209 19.0376 20.8163 18.9981 20.8866 18.9278C20.9569 18.8574 20.9964 18.762 20.9964 18.6626C20.9932 18.6197 20.9853 18.5772 20.973 18.536L20.2042 15.803Z" stroke="#0D0D0D" stroke-width="1.50009" stroke-miterlimit="10" stroke-linecap="round"/>
<path d="M3.11551 11.6495C2.50068 12.7541 2.20326 14.0071 2.25612 15.2702C2.30898 16.5332 2.71008 17.757 3.41506 18.8064C3.52335 18.97 3.58429 19.0965 3.56554 19.1814C3.54679 19.2662 3.00629 22.0817 3.00629 22.0817C2.99329 22.1476 2.99822 22.2158 3.02057 22.2791C3.04291 22.3424 3.08186 22.3986 3.13333 22.4417C3.20201 22.4965 3.2874 22.5259 3.37522 22.5252C3.42214 22.5253 3.46858 22.5157 3.51163 22.497L6.14663 21.4657C6.32798 21.3942 6.53029 21.3976 6.70916 21.4751C7.59703 21.8211 8.57865 22.0376 9.56073 22.0376C10.8786 22.039 12.1733 21.6915 13.3133 21.0302" stroke="#0D0D0D" stroke-width="1.50009" stroke-miterlimit="10" stroke-linecap="round"/>
</svg>
