<svg width="24" height="25" viewBox="0 0 24 25" fill="none" xmlns="http://www.w3.org/2000/svg">
<path d="M18.0011 11.2777V19.9032C18.0011 20.1494 17.9526 20.3933 17.8584 20.6208C17.7642 20.8483 17.626 21.055 17.4519 21.2291C17.2778 21.4032 17.0711 21.5413 16.8436 21.6356C16.6161 21.7298 16.3723 21.7783 16.126 21.7783H4.87535C4.37804 21.7783 3.9011 21.5808 3.54945 21.2291C3.1978 20.8775 3.00024 20.4005 3.00024 19.9032V8.65254C3.00024 8.15523 3.1978 7.67829 3.54945 7.32664C3.9011 6.97499 4.37804 6.77744 4.87535 6.77744H12.7264" stroke="#0D0D0D" stroke-width="1.50009" stroke-linecap="round" stroke-linejoin="round"/>
<path d="M21.5608 3.27337C21.4923 3.19811 21.4093 3.13751 21.3167 3.09525C21.2241 3.05298 21.124 3.02992 21.0222 3.02747C20.9205 3.02502 20.8193 3.04322 20.7248 3.08097C20.6303 3.11872 20.5444 3.17525 20.4723 3.24712L19.8925 3.82419C19.8222 3.89451 19.7827 3.98986 19.7827 4.08928C19.7827 4.1887 19.8222 4.28405 19.8925 4.35437L20.4241 4.88503C20.4589 4.92004 20.5003 4.94782 20.5459 4.96678C20.5916 4.98573 20.6405 4.99549 20.6899 4.99549C20.7393 4.99549 20.7882 4.98573 20.8338 4.96678C20.8794 4.94782 20.9208 4.92004 20.9557 4.88503L21.521 4.3225C21.807 4.03701 21.8337 3.57199 21.5608 3.27337Z" fill="#0D0D0D"/>
<path d="M18.7203 4.99614L10.2579 13.4435C10.2066 13.4946 10.1693 13.5581 10.1496 13.6277L9.75817 14.7936C9.74879 14.8252 9.74813 14.8588 9.75625 14.8908C9.76436 14.9228 9.78096 14.952 9.8043 14.9753C9.82763 14.9986 9.85682 15.0152 9.8888 15.0233C9.92078 15.0315 9.95436 15.0308 9.98599 15.0214L11.1509 14.63C11.2206 14.6103 11.284 14.573 11.3351 14.5217L19.7825 6.05839C19.8607 5.9794 19.9045 5.87277 19.9045 5.76165C19.9045 5.65053 19.8607 5.5439 19.7825 5.46492L19.3161 4.99614C19.237 4.91727 19.1299 4.87299 19.0182 4.87299C18.9065 4.87299 18.7993 4.91727 18.7203 4.99614Z" fill="#0D0D0D"/>
</svg>
