<svg width="24" height="25" viewBox="0 0 24 25" fill="none" xmlns="http://www.w3.org/2000/svg">
<path d="M12.0006 4.52274C10.3688 4.52274 8.77367 5.00662 7.41688 5.91319C6.0601 6.81977 5.00262 8.10832 4.37816 9.6159C3.7537 11.1235 3.59031 12.7824 3.90866 14.3828C4.227 15.9832 5.01279 17.4533 6.16664 18.6072C7.32049 19.761 8.79058 20.5468 10.391 20.8652C11.9915 21.1835 13.6504 21.0201 15.1579 20.3957C16.6655 19.7712 17.9541 18.7137 18.8606 17.3569C19.7672 16.0002 20.2511 14.405 20.2511 12.7732C20.2511 10.5851 19.3818 8.48651 17.8346 6.93925C16.2873 5.39198 14.1888 4.52274 12.0006 4.52274Z" stroke="#0D0D0D" stroke-width="1.50009" stroke-miterlimit="10"/>
<path d="M9.37561 10.2554C9.37561 10.2554 9.41499 9.43504 10.293 8.7286C10.8138 8.30904 11.4382 8.18763 12.0008 8.17919C12.5131 8.17263 12.9707 8.25747 13.2444 8.38779C13.7132 8.61093 14.6259 9.15565 14.6259 10.314C14.6259 11.5328 13.829 12.0864 12.921 12.6954C12.013 13.3043 11.7664 13.9653 11.7664 14.6483" stroke="#0D0D0D" stroke-width="1.31258" stroke-miterlimit="10" stroke-linecap="round"/>
<path d="M11.7194 18.0235C12.2372 18.0235 12.657 17.6037 12.657 17.0859C12.657 16.5681 12.2372 16.1484 11.7194 16.1484C11.2016 16.1484 10.7819 16.5681 10.7819 17.0859C10.7819 17.6037 11.2016 18.0235 11.7194 18.0235Z" fill="#0D0D0D"/>
</svg>
