<svg width="24" height="25" viewBox="0 0 24 25" fill="none" xmlns="http://www.w3.org/2000/svg">
<path d="M21.0011 12.7762C21.0011 7.80718 16.9696 3.7757 12.0005 3.7757C7.03149 3.7757 3 7.80718 3 12.7762C3 17.7453 7.03149 21.7767 12.0005 21.7767C16.9696 21.7767 21.0011 17.7453 21.0011 12.7762Z" stroke="#0D0D0D" stroke-width="1.50009" stroke-miterlimit="10"/>
<path d="M11.7316 8.55939L12.0007 14.2761L12.2693 8.55939C12.2709 8.52284 12.2651 8.48634 12.2522 8.45211C12.2393 8.41789 12.2195 8.38666 12.1941 8.36034C12.1687 8.33401 12.1382 8.31314 12.1045 8.29901C12.0707 8.28487 12.0344 8.27776 11.9979 8.27812V8.27812C11.9617 8.27846 11.926 8.28608 11.8929 8.30053C11.8597 8.31497 11.8298 8.33595 11.805 8.3622C11.7801 8.38845 11.7608 8.41944 11.7482 8.45332C11.7356 8.4872 11.73 8.52327 11.7316 8.55939V8.55939Z" stroke="#0D0D0D" stroke-width="1.50009" stroke-linecap="round" stroke-linejoin="round"/>
<path d="M12.0008 18.022C11.8154 18.022 11.6341 17.967 11.4799 17.864C11.3257 17.761 11.2056 17.6146 11.1346 17.4433C11.0636 17.2719 11.0451 17.0834 11.0812 16.9016C11.1174 16.7197 11.2067 16.5526 11.3378 16.4215C11.469 16.2904 11.636 16.2011 11.8179 16.1649C11.9997 16.1288 12.1883 16.1473 12.3596 16.2183C12.5309 16.2892 12.6773 16.4094 12.7803 16.5636C12.8834 16.7178 12.9383 16.899 12.9383 17.0845C12.9383 17.3331 12.8396 17.5716 12.6637 17.7474C12.4879 17.9232 12.2494 18.022 12.0008 18.022Z" fill="#0D0D0D"/>
</svg>
