<svg width="24" height="25" viewBox="0 0 24 25" fill="none" xmlns="http://www.w3.org/2000/svg">
<path d="M20.0488 17.2394C18.8449 15.766 17.995 15.0159 17.995 10.954C17.995 7.23419 16.0955 5.90895 14.5322 5.26531C14.3245 5.17999 14.129 4.98404 14.0657 4.77075C13.7915 3.83741 13.0227 3.01517 12.0008 3.01517C10.9788 3.01517 10.2095 3.83788 9.93813 4.77169C9.87484 4.98732 9.67936 5.17999 9.47169 5.26531C7.90643 5.90988 6.00881 7.23044 6.00881 10.954C6.00647 15.0159 5.15657 15.766 3.95275 17.2394C3.45396 17.8497 3.89087 18.7662 4.76327 18.7662H19.2429C20.1106 18.7662 20.5447 17.8469 20.0488 17.2394Z" stroke="#0D0D0D" stroke-width="1.5001" stroke-linecap="round" stroke-linejoin="round"/>
<path d="M15.0009 18.7662V19.5163C15.0009 20.312 14.6848 21.0751 14.1221 21.6377C13.5595 22.2004 12.7964 22.5165 12.0007 22.5165C11.205 22.5165 10.4419 22.2004 9.87922 21.6377C9.31658 21.0751 9.00049 20.312 9.00049 19.5163V18.7662" stroke="#0D0D0D" stroke-width="1.5001" stroke-linecap="round" stroke-linejoin="round"/>
</svg>
