<svg width="24" height="25" viewBox="0 0 24 25" fill="none" xmlns="http://www.w3.org/2000/svg">
<path d="M19.501 11.1517V20.2812C19.501 20.8779 19.2639 21.4503 18.842 21.8722C18.42 22.2942 17.8476 22.5313 17.2509 22.5313H6.75025C6.15348 22.5313 5.58115 22.2942 5.15917 21.8722C4.73719 21.4503 4.50012 20.8779 4.50012 20.2812V5.28028C4.50012 4.68351 4.73719 4.11118 5.15917 3.6892C5.58115 3.26722 6.15348 3.03015 6.75025 3.03015H11.3794C11.7771 3.03021 12.1585 3.1882 12.4398 3.4694L19.0618 10.0913C19.3429 10.3726 19.5009 10.754 19.501 11.1517Z" stroke="#0D0D0D" stroke-width="1.50009" stroke-linejoin="round"/>
<path d="M12.0007 3.40527V9.0306C12.0007 9.42845 12.1588 9.81 12.4401 10.0913C12.7214 10.3726 13.103 10.5307 13.5008 10.5307H19.1261" stroke="#0D0D0D" stroke-width="1.50009" stroke-linecap="round" stroke-linejoin="round"/>
<path d="M8.25061 14.2809H15.751" stroke="#0D0D0D" stroke-width="1.50009" stroke-linecap="round" stroke-linejoin="round"/>
<path d="M8.25061 18.0311H15.751" stroke="#0D0D0D" stroke-width="1.50009" stroke-linecap="round" stroke-linejoin="round"/>
</svg>
