<svg width="24" height="25" viewBox="0 0 24 25" fill="none" xmlns="http://www.w3.org/2000/svg">
<path d="M12.0007 5.64644V8.27159H14.6259C15.1451 8.27159 15.6526 8.11763 16.0843 7.82918C16.516 7.54072 16.8525 7.13073 17.0512 6.65104C17.2499 6.17136 17.3019 5.64353 17.2006 5.1343C17.0993 4.62507 16.8493 4.15731 16.4822 3.79018C16.115 3.42304 15.6473 3.17302 15.138 3.07173C14.6288 2.97044 14.101 3.02242 13.6213 3.22112C13.1416 3.41981 12.7316 3.75628 12.4432 4.18798C12.1547 4.61969 12.0007 5.12723 12.0007 5.64644V5.64644Z" stroke="#0D0D0D" stroke-width="1.50009" stroke-miterlimit="10" stroke-linecap="round"/>
<path d="M12.0007 5.64643C12.0007 6.37116 12.0007 8.27158 12.0007 8.27158H9.37552C8.85631 8.27158 8.34877 8.11762 7.91706 7.82916C7.48536 7.54071 7.14889 7.13071 6.9502 6.65103C6.7515 6.17134 6.69952 5.64351 6.80081 5.13428C6.9021 4.62505 7.15212 4.1573 7.51926 3.79016C7.88639 3.42303 8.35415 3.17301 8.86338 3.07171C9.37261 2.97042 9.90044 3.02241 10.3801 3.2211C10.8598 3.41979 11.2698 3.75626 11.5583 4.18797C11.8467 4.61967 12.0007 5.12722 12.0007 5.64643V5.64643Z" stroke="#0D0D0D" stroke-width="1.50009" stroke-miterlimit="10" stroke-linecap="round"/>
<path d="M19.5011 8.27162H4.50021C3.67173 8.27162 3.00012 8.94323 3.00012 9.77171V12.0218C3.00012 12.8503 3.67173 13.5219 4.50021 13.5219H19.5011C20.3296 13.5219 21.0012 12.8503 21.0012 12.0218V9.77171C21.0012 8.94323 20.3296 8.27162 19.5011 8.27162Z" stroke="#0D0D0D" stroke-width="1.50009" stroke-linecap="round" stroke-linejoin="round"/>
<path d="M19.501 13.5219V20.2723C19.501 20.8691 19.2639 21.4414 18.842 21.8634C18.42 22.2854 17.8476 22.5225 17.2509 22.5225H6.75025C6.15348 22.5225 5.58115 22.2854 5.15917 21.8634C4.73719 21.4414 4.50012 20.8691 4.50012 20.2723V13.5219" stroke="#0D0D0D" stroke-width="1.50009" stroke-linecap="round" stroke-linejoin="round"/>
<path d="M12.0007 8.27165V22.5225" stroke="#0D0D0D" stroke-width="1.50009" stroke-linecap="round" stroke-linejoin="round"/>
</svg>
