<svg width="25" height="25" viewBox="0 0 25 25" fill="none" xmlns="http://www.w3.org/2000/svg">
<path d="M15.5001 9.03208V7.15697C15.5001 6.65966 15.3026 6.18272 14.9509 5.83107C14.5993 5.47942 14.1223 5.28186 13.625 5.28186H4.6245C4.12719 5.28186 3.65025 5.47942 3.2986 5.83107C2.94695 6.18272 2.74939 6.65966 2.74939 7.15697V18.4076C2.74939 18.9049 2.94695 19.3819 3.2986 19.7335C3.65025 20.0852 4.12719 20.2827 4.6245 20.2827H13.625C14.1223 20.2827 14.5993 20.0852 14.9509 19.7335C15.3026 19.3819 15.5001 18.9049 15.5001 18.4076V16.5325" stroke="#0D0D0D" stroke-width="1.50009" stroke-linecap="round" stroke-linejoin="round"/>
<path d="M18.5002 9.03204L22.2505 12.7823L18.5002 16.5325" stroke="#0D0D0D" stroke-width="1.50009" stroke-linecap="round" stroke-linejoin="round"/>
<path d="M9.45288 12.7822H22.2505" stroke="#0D0D0D" stroke-width="1.50009" stroke-linecap="round" stroke-linejoin="round"/>
</svg>
