<svg width="152" height="191" fill="none" xmlns="http://www.w3.org/2000/svg"><g clip-path="url(#a)"><path d="M112.629 44.875c-4.305 6.502-9.286 9.411-14.412 9.914-5.168.507-10.654-1.415-15.957-4.93-5.305-3.516-9.214-7.816-10.764-12.77-1.537-4.915-.804-10.635 3.5-17.137 4.326-6.534 11.382-12.52 18.673-15.983 7.336-3.484 14.626-4.29 19.628-.975 5.003 3.316 7.103 10.342 6.758 18.454-.343 8.062-3.101 16.893-7.426 23.427Z" fill="#054BB4" stroke="#BCFF5F" stroke-width="1.78"/><path d="M146.236 96.305h.153c-.09.36-.186.715-.291 1.059l-.001.004c-3.051 10.226-12.531 17.676-23.744 17.676h-13.362c-6.449.126-12.216 1.117-17.23 3.067-.407.15-.81.325-1.18.485l-.331.143-.084.035-.074.052c-2.3 1.591-3.943 4.104-4.421 6.874v.001c-.121.702-.171 1.412-.205 2.093l-.03.654-.016.383-1.656.251c-.21 2.593-1.775 4.822-3.718 6.943a5.286 5.286 0 0 0-.715-1.994l-1.746-2.853.097 3.343c.063 2.18-1.274 4.169-3.054 5.94a34.762 34.762 0 0 0-.47-1.87l-.75-2.683-.944 2.621a8.492 8.492 0 0 1-.063.168 8.975 8.975 0 0 0-.187.518 66.287 66.287 0 0 1-2.807 6.973l-.002.003c-7.857 16.883-22.341 29.994-40.048 36.438l-10.37 2.365-17.806 4.053-.228-86.611L.89 77.877v-2.03a8.73 8.73 0 0 0 .746-.212c.876-.285 2.073-.771 3.43-1.366 2.725-1.194 6.196-2.87 9.261-4.39 4.764-2.363 8.556-6.38 10.475-11.368.227-.563.424-1.15.483-1.645l.067-.557-.475-.3c-2.493-1.578-4.892-3.948-7.125-7.284-4.36-6.512-7.164-15.329-7.549-23.39-.387-8.111 1.678-15.148 6.663-18.488 4.991-3.341 12.285-2.572 19.639.872 7.309 3.423 14.395 9.37 18.76 15.878l.352.525.611-.16a45.52 45.52 0 0 1 11.483-1.466c21.508 0 39.229 14.771 42.359 33.942a7.799 7.799 0 0 0 1.913 4.011 7.486 7.486 0 0 0 2.235 1.737 7.851 7.851 0 0 0 3.679.967l7.46.115 9.071.143h.014c3.48 0 8.507 2.248 11.687 7.33 3.153 5.039 4.54 12.967.524 24.378l-.417 1.186Z" fill="#054BB4" stroke="#BCFF5F" stroke-width="1.78"/><path d="M103.97 56.013c.178.855.232 1.736.196 2.608-.045 1.122-.24 2.253-.757 3.24-.516.998-1.362 1.844-2.43 2.19-.917.295-1.94.197-2.831-.168-.89-.365-1.665-.988-2.306-1.71-2.76-3.098-3.64-11.51 2.306-11.608 1.878-.027 3.659 1.104 4.7 2.67.561.846.917 1.79 1.122 2.787v-.009Z" fill="#BCFF5F"/><path d="M136.313 114.481c-.999.69-2.031 1.271-3.082 1.602a4.974 4.974 0 0 0 .32-1.904l-.069-2.202-1.48 1.632c-3.014 3.325-7.469 5.289-11.948 5.359.42-.535.794-1.106 1.116-1.705l-1.406-1.058c-2.709 2.638-6.549 4.076-10.326 3.947.314-.352.595-.734.84-1.141l-1.316-1.156c-3.006 2.387-6.726 3.875-10.555 4.245a3.334 3.334 0 0 0-.03-.951c-.146-.826-.612-1.644-1.403-2.128l-.474-.29-.469.298a10.782 10.782 0 0 1-5.298 1.65c.134-.146.259-.299.373-.458.755-1.044 1.142-2.421.81-3.769v-.002c-.42-1.697-1.67-2.826-2.8-3.747-.19-.155-.376-.304-.558-.449-.975-.78-1.822-1.457-2.379-2.341-1.09-1.73-.885-4.019-.547-6.481l-1.67-.538c-.177.337-.356.673-.534 1.008-.67-4.832.68-9.917 2.107-14.948l.606-2.136-1.914 1.126c-.343.202-.67.428-.98.676 1.086-4.634 3.49-8.966 6.881-12.308l2.098-2.067-2.892.56c-.397.076-.79.173-1.177.29 3.236-4.14 7.727-7.306 12.729-8.914l-.159-1.73a14.61 14.61 0 0 0-.293-.035c3.822-1.668 7.697-2.813 11.562-2.131l.995.175.049-1.01c.004-.077.01-.155.018-.233a7.689 7.689 0 0 0 1.618 1.293l.271.162.267-.038c.835.317 1.74.51 2.694.519h.003l7.455.115 7.439.117-.035.053h1.663c3.319 0 8.042 2.044 11.229 6.644 3.16 4.56 4.852 11.712 1.953 21.975l-.023.084-.007.086c-.37 4.58-1.227 9.003-3.229 13h-.001a24.728 24.728 0 0 1-8.041 9.253l-.001.001Z" fill="#054BB4" stroke="#BCFF5F" stroke-width="1.78"/><path d="M113.664 70.702c-1.602 0-1.602 2.492 0 2.492 1.603 0 1.603-2.492 0-2.492ZM117.315 67.256c-1.603 0-1.603 2.493 0 2.493 1.602 0 1.602-2.493 0-2.493ZM117.448 71.6c-1.603 0-1.603 2.493 0 2.493 1.602 0 1.602-2.492 0-2.492Z" fill="#BCFF5F"/><path d="M132.722 125.358h-.003c-2.663-.281-5.234-1.562-6.797-3.639h-.001c-1.373-1.823-1.96-4.201-2.011-6.613-.05-2.496.362-4.975.788-7.538.126-.757.253-1.522.37-2.296.503-3.339.797-6.802-.271-10.253-.122-.397-.261-.79-.419-1.181 1.106-.316 2.19-.6 3.268-.807 2.634-.495 5.321-.64 7.778.094 1.133.34 2.186.881 3.272 1.503.29.166.586.34.887.518.798.47 1.633.96 2.488 1.38l.009.004.007.003c.144.5.198 1.117.198 1.82 0 .472-.021.95-.043 1.439l-.012.268c-.024.566-.044 1.15-.015 1.68v.004c.128 2.122.458 4.324 1.355 6.375l.001.001.175.398c.749 1.701 1.439 3.268 1.781 4.876.273 1.3.333 2.601.021 3.99-1.277 5.535-7.243 8.582-12.826 7.974Z" fill="#054BB4" stroke="#BCFF5F" stroke-width="1.78"/><path d="M70.434 64.15a10.557 10.557 0 0 1-.462 2.572c-.32 1.069-.802 2.12-1.54 2.947-.748.837-1.781 1.442-2.903 1.514-.961.053-1.922-.294-2.697-.873-.775-.579-1.362-1.37-1.807-2.234-1.896-3.695-.65-12.063 5.136-10.665 1.825.436 3.268 1.985 3.882 3.765.33.953.445 1.968.391 2.974ZM151.606 67.55c0 3.108-5.475 9.624-12.223 9.624-6.748 0-12.223-6.517-12.223-9.623 0-3.107 5.475-5.627 12.223-5.627 6.748 0 12.223 2.52 12.223 5.627ZM147.564 95.228c-.027.08-.053.169-.08.249a28.734 28.734 0 0 1-.534 2.145c-.588.045-1.193.045-1.807-.018a9.343 9.343 0 0 1-1.959-.436c-1.985-.65-3.757-1.86-5.617-2.884a12.016 12.016 0 0 0-2.822-1.113c1.86 5.11 2.386 10.585 1.602 15.98-.089.614-.872.952-1.415.792-.641-.187-.882-.783-.793-1.407.775-5.332.027-10.78-1.976-15.766a16.424 16.424 0 0 0-3.596.232c-1.549.267-3.081.668-4.603 1.095-4.371 1.229-8.706 2.662-13.318 1.665-2.831-.615-5.519-2.28-6.828-4.95-1.21-2.457-1.335-5.555.401-7.807.365-.472.935-.712 1.495-.392.463.258.757 1.024.401 1.496-1.309 1.7-1.273 3.952-.294 5.813 1.095 2.074 3.178 3.24 5.413 3.72 4.05.882 8.012-.4 11.929-1.557 1.451-.427 2.893-.837 4.335-1.113 2.698-.507 5.546-.676 8.199.116 2.466.739 4.496 2.332 6.784 3.454.116.053.222.107.338.151a7.809 7.809 0 0 0 4.763.526l-.018.009Z" fill="#BCFF5F"/></g><defs><clipPath id="a"><path fill="#fff" d="M0 0h151.606v190.162H0z"/></clipPath></defs></svg>