<svg width="175" height="196" fill="none" xmlns="http://www.w3.org/2000/svg"><g clip-path="url(#a)"><path d="M35.242 77.723c.332-4.534.254-6.051 1.412-10.084 1.315-4.579 3.06-9.279 5.31-12.665 2.274-3.427 5.333-7.554 8.233-10.473 1.414-1.425 4.249-3.49 5.748-4.823-4.018-1.834-4.52-2.099-8.539-3.933-4.573-2.09-9.11-4.323-13.754-6.248-1.961-.814-4.047-1.488-6.188-1.536-2.226-.05-4.367.622-6.276 1.752-3.573 2.117-6.641 5.31-9.303 8.47C6.862 44.144 3.05 51.277 1.489 58.968c-1.52 7.467-1.885 18.788 5.976 22.92 3.696 1.94 8.846 1.148 10.93-2.783 1.077-2.033 1.115-4.355 1.417-6.583.201-1.493.741-3.311 1.956-4.25-.077 5.421 1.218 11.14 5.055 15.11 3.106 3.216 4.716 4.904 9.07 4.2-.446-3.497-.51-3.667-.651-6.232v-3.627Z" stroke="#BCFF5F" stroke-width="2" stroke-miterlimit="10"/><path d="M184.387 89.077v106.384l-3.059-.162a73.204 73.204 0 0 1-30.853-8.559 72.888 72.888 0 0 1-21.518-17.458c-5.056-6.032-10.095-11.722-15.097-16.956a242.383 242.383 0 0 0-8.069-8.064c-.071-.064-.134-.126-.204-.19-.223.529-.785.905-1.533.762-3.649-.673-6.957-2.384-9.657-4.841-.24.762-1.256 1.256-1.962.762-2.569-1.81-5.564-2.457-8.614-2.726.33.162.66.324 1.016.458 1.417.538 1.177 2.518-.356 2.634-2.478.199-4.95.135-7.41-.116.472.278.998.467 1.551.52 1.74.171 1.703 2.472 0 2.689a25.827 25.827 0 0 1-3.603.198c.606.734.064 2.178-1.06 2.24a43.997 43.997 0 0 1-9.89-.538c.18.834-.507 1.81-1.632 1.65-5.84-.807-11.466-2.652-16.674-5.412a1.283 1.283 0 0 1-.472-.422c-5.85-2.481-10.362-6.829-13.233-12.599-3.031-6.111-2.542-13.397.748-20.727a38.886 38.886 0 0 0 2.658-8.245 38.045 38.045 0 0 0 .304-13.738c-1.524-9.59.08-19.42 4.35-28.184 4.726-9.705 12.708-18.103 23.31-23.426 21.375-10.735 46.324-5.403 60.092 11.49 0 0 6.804 5.87 10.353 7.545.997.467.748 1.918-.089 2.365a17.37 17.37 0 0 0 5.814 2.842c1.195.33 1.347 2.365 0 2.59a30.125 30.125 0 0 1-4.174.431 27.57 27.57 0 0 0 9.514 4.052c1.265.278 1.292 2.331 0 2.59a43.227 43.227 0 0 1-5.975.78c2.694 2.286 6.002 3.792 9.56 4.177 1.124.116 1.8 1.381.945 2.295a12.207 12.207 0 0 1-2.764 2.17c9.487 8.674 21.191 15.38 37.683 10.739Z" stroke="#BCFF5F" stroke-width="2" stroke-miterlimit="10"/><path d="M73.333 97.647c-1.721 0-1.724 2.689 0 2.689 1.723 0 1.723-2.689 0-2.689ZM76.895 94.58c-1.721 0-1.724 2.689 0 2.689 1.723 0 1.723-2.689 0-2.689ZM79.337 100.204c-1.721 0-1.723 2.689 0 2.689s1.723-2.689 0-2.689ZM35.89 113.191c-1.72 0-1.723 2.689 0 2.689 1.724 0 1.724-2.689 0-2.689ZM33.956 118.61c-1.72 0-1.723 2.689 0 2.689s1.723-2.689 0-2.689ZM38.84 117.691c-1.72 0-1.723 2.689 0 2.689 1.724 0 1.724-2.689 0-2.689Z" fill="#BCFF5F"/><path d="M103.712 52.484c7.503 8.49 7 21.143-.986 28.272-7.986 7.128-20.548 6.136-28.05-2.353-7.504-8.49-7-21.144.986-28.272s20.547-6.137 28.05 2.353ZM156.272 101.518c-5.452-6.177-8.375-13.685-8.815-21.177 9.206 7.936 21.469 13.902 35.93 10.06v22.895c-9.793.412-19.883-3.598-27.115-11.778ZM150.673 185.303l-.217.194-.072.06a71.877 71.877 0 0 1-20.661-16.915c-4.919-5.868-9.825-11.418-14.7-16.543.645-1.543 1.579-2.888 2.803-3.981 3.192-2.851 7.909-3.553 13.103-2.17 5.186 1.381 10.722 4.821 15.327 10.035 4.611 5.215 7.359 11.148 8.113 16.489.755 5.35-.497 9.979-3.696 12.831ZM177.766 140.079a14.47 14.47 0 0 1 5.62-3.101v30.609a17.92 17.92 0 0 1-6.025-4.477c-6.232-7.054-5.95-17.359.405-23.031Z" stroke="#BCFF5F" stroke-width="2"/><path d="M65.426 97.866c1.757 3.46-.62 13.821-8.097 17.659-7.478 3.837-17.221-.304-18.98-3.763-1.758-3.459 2.879-9.375 10.354-13.212 7.478-3.837 14.963-4.143 16.72-.684h.003Z" fill="#BCFF5F"/><path d="M60.694 100.152c1.165 2.6-.946 10.109-6.562 12.654-5.617 2.545-12.614-.839-13.782-3.439-1.165-2.6 2.442-6.77 8.06-9.315 5.617-2.546 11.118-2.502 12.284.098v.002Z" fill="#BCFF5F" style="mix-blend-mode:screen" opacity=".35"/><path d="M59.08 98.03c.863 1.7-2.11 4.959-6.638 7.283-4.528 2.325-8.9 2.831-9.76 1.133-.865-1.7 2.108-4.959 6.636-7.283 4.528-2.324 8.9-2.83 9.761-1.132ZM53.894 82.701c.33.74.56 1.532.705 2.33.183 1.025.233 2.093-.03 3.103-.263 1.01-.864 1.955-1.76 2.484-.77.455-1.713.572-2.598.419-.882-.153-1.707-.56-2.433-1.087-3.122-2.263-5.62-9.737-.256-11.032 1.696-.407 3.54.263 4.793 1.477.676.654 1.195 1.445 1.579 2.306Z" fill="#BCFF5F"/><path d="M96.026 62.93c.523 1.17.885 2.42 1.114 3.68.29 1.62.37 3.31-.046 4.904-.416 1.596-1.366 3.09-2.78 3.925-1.22.72-2.71.904-4.107.663-1.394-.241-2.698-.886-3.844-1.718-4.934-3.576-8.883-15.386-.405-17.432 2.68-.644 5.593.414 7.574 2.334 1.068 1.033 1.888 2.283 2.494 3.644Z" fill="#054BB4"/><path d="M93.517 64.234c.331.74.56 1.531.705 2.329.184 1.025.234 2.094-.03 3.103-.262 1.01-.863 1.956-1.759 2.484-.77.456-1.714.572-2.598.42-.882-.153-1.708-.56-2.433-1.087-3.123-2.263-5.621-9.738-.256-11.032 1.696-.408 3.539.262 4.793 1.477.676.654 1.195 1.445 1.578 2.306ZM74.06 108.615c-.61-1.388-2.637-.187-2.03 1.192 1.402 3.188.484 7.194-2.094 9.498-2.694 2.406-6.903 2.527-9.882.622-.757-.483-1.778.148-1.769 1.021.02 2.308-1.417 4.573-3.639 5.321-2.256.759-4.693-.162-6.13-1.994-.937-1.194-2.59.49-1.663 1.67 1.982 2.527 5.653 3.648 8.678 2.511 2.491-.936 4.314-3.124 4.902-5.671 3.68 1.531 8.147.891 11.164-1.808 3.427-3.06 4.28-8.23 2.463-12.362Z" fill="#BCFF5F"/><path d="M123.772 52.489c1.191-7.646-.844-15.79-5.582-21.899l-2.274-2.931 3.439 1.392c6.597 2.67 14.129 2.95 20.901.774.331-.106.675-.224 1.028-.344 1.541-.527 3.269-1.118 5.051-1.153l.02 1c.965-.019 1.919.14 2.872.3.422.071.843.142 1.266.197l-26.721 22.664Zm0 0c-2.066-2.794-5.369-4.578-8.271-5.988-4.45-2.162-13.905-5.549-22.183-8.377a933.678 933.678 0 0 0-14.256-4.738l-.23-.074c3.683-8.67 11.628-18.422 17.786-25.543.995-1.153 1.963-2.204 3.1-2.993l.002-.001c1.335-.929 2.924-1.508 4.613-1.966 8.324-2.252 17.316-1.202 25.639 1.526 8.329 2.73 16.061 7.049 23.83 11.398h.001c1.224.684 2.296 1.3 3.085 2.18.701.783 1.183 1.792 1.516 2.9" fill="#054BB4" stroke="#BCFF5F" stroke-width="2"/></g><defs><clipPath id="a"><path fill="#fff" transform="translate(.5 .582)" d="M0 0h184v195H0z"/></clipPath></defs></svg>