<svg width="24" height="25" viewBox="0 0 24 25" fill="none" xmlns="http://www.w3.org/2000/svg">
<mask id="mask0_26_1531" style="mask-type:alpha" maskUnits="userSpaceOnUse" x="0" y="0" width="24" height="25">
<rect y="0.5" width="24" height="24" fill="#D9D9D9"/>
</mask>
<g mask="url(#mask0_26_1531)">
<path d="M10.8624 15.375L9.21244 22.6875C9.16244 22.9125 9.04994 23.0938 8.87494 23.2313C8.69994 23.3688 8.4916 23.4375 8.24994 23.4375C7.9416 23.4375 7.69369 23.3209 7.50619 23.0875C7.31869 22.8542 7.2541 22.5875 7.31244 22.2875L10.1374 7.96255C10.2291 7.50422 10.4458 7.1563 10.7874 6.9188C11.1291 6.6813 11.4833 6.56255 11.8499 6.56255C12.2166 6.56255 12.5604 6.6438 12.8812 6.8063C13.202 6.9688 13.4583 7.21255 13.6499 7.53755L14.6499 9.13755C14.9499 9.62088 15.3479 10.0625 15.8437 10.4625C16.3395 10.8625 16.9124 11.1625 17.5624 11.3625V10.25C17.5624 10.05 17.627 9.88547 17.7562 9.7563C17.8854 9.62713 18.0499 9.56255 18.2499 9.56255C18.4499 9.56255 18.6145 9.62713 18.7437 9.7563C18.8729 9.88547 18.9374 10.05 18.9374 10.25V22.75C18.9374 22.9501 18.8729 23.1146 18.7437 23.2438C18.6145 23.373 18.4499 23.4375 18.2499 23.4375C18.0499 23.4375 17.8854 23.373 17.7562 23.2438C17.627 23.1146 17.5624 22.9501 17.5624 22.75V13.3C16.7458 13.1167 15.9895 12.8167 15.2937 12.4C14.5979 11.9834 13.9874 11.4709 13.4624 10.8625L12.8374 14.025L14.6499 15.75C14.7416 15.8417 14.8124 15.9438 14.8624 16.0563C14.9124 16.1688 14.9374 16.2917 14.9374 16.425V22.5C14.9374 22.7584 14.8458 22.9792 14.6624 23.1625C14.4791 23.3459 14.2583 23.4375 13.9999 23.4375C13.7416 23.4375 13.5208 23.3459 13.3374 23.1625C13.1541 22.9792 13.0624 22.7584 13.0624 22.5V17.475L10.8624 15.375ZM6.46244 13.3875L5.31244 13.1625C5.06244 13.1209 4.8666 12.9917 4.72494 12.775C4.58327 12.5584 4.53744 12.3209 4.58744 12.0625L5.33744 8.13755C5.43744 7.58755 5.73119 7.17297 6.21869 6.8938C6.70619 6.61463 7.2291 6.52922 7.78744 6.63755C8.04577 6.68755 8.24369 6.8188 8.38119 7.0313C8.51869 7.2438 8.56244 7.47922 8.51244 7.73755L7.56244 12.6375C7.51244 12.8959 7.38119 13.098 7.16869 13.2438C6.95619 13.3896 6.72077 13.4375 6.46244 13.3875ZM13.4999 5.95005C12.9583 5.95005 12.4979 5.76047 12.1187 5.3813C11.7395 5.00213 11.5499 4.54172 11.5499 4.00005C11.5499 3.45838 11.7395 2.99797 12.1187 2.6188C12.4979 2.23963 12.9583 2.05005 13.4999 2.05005C14.0416 2.05005 14.502 2.23963 14.8812 2.6188C15.2604 2.99797 15.4499 3.45838 15.4499 4.00005C15.4499 4.54172 15.2604 5.00213 14.8812 5.3813C14.502 5.76047 14.0416 5.95005 13.4999 5.95005Z" fill="#D7D7D7"/>
</g>
</svg>
