<svg width="25" height="25" viewBox="0 0 25 25" fill="none" xmlns="http://www.w3.org/2000/svg">
<mask id="mask0_26_1566" style="mask-type:alpha" maskUnits="userSpaceOnUse" x="0" y="0" width="25" height="25">
<rect x="0.5" y="0.5" width="24" height="24" fill="#D9D9D9"/>
</mask>
<g mask="url(#mask0_26_1566)">
<path d="M4.65 12.4625L10.15 4.54999C10.2583 4.40833 10.3833 4.31874 10.525 4.28124C10.6667 4.24374 10.8083 4.24583 10.95 4.28749C11.0917 4.32916 11.2083 4.40624 11.3 4.51874C11.3917 4.63124 11.4375 4.77499 11.4375 4.94999V13C11.4375 13.2583 11.3458 13.4792 11.1625 13.6625C10.9792 13.8458 10.7583 13.9375 10.5 13.9375H5.425C5.23333 13.9375 5.06875 13.8896 4.93125 13.7937C4.79375 13.6979 4.68333 13.5792 4.6 13.4375C4.51667 13.2958 4.47708 13.1354 4.48125 12.9562C4.48542 12.7771 4.54167 12.6125 4.65 12.4625ZM14.3125 13.9375C13.9208 13.9375 13.6625 13.7917 13.5375 13.5C13.4125 13.2083 13.3958 12.9042 13.4875 12.5875C13.6458 11.9542 13.7812 11.2375 13.8938 10.4375C14.0063 9.63749 14.0625 8.82499 14.0625 7.99999C14.0625 7.17499 14.0146 6.33749 13.9187 5.48749C13.8229 4.63749 13.6833 3.84166 13.5 3.09999C13.4667 2.94166 13.4708 2.79791 13.5125 2.66874C13.5542 2.53958 13.625 2.43333 13.725 2.34999C13.825 2.25833 13.9458 2.19791 14.0875 2.16874C14.2292 2.13958 14.3708 2.16249 14.5125 2.23749C15.3042 2.66249 16.0646 3.22708 16.7937 3.93124C17.5229 4.63541 18.1917 5.42916 18.8 6.31249C19.4917 7.31249 20.0625 8.35833 20.5125 9.44999C20.9625 10.5417 21.2417 11.6958 21.35 12.9125C21.3833 13.1875 21.3042 13.4271 21.1125 13.6312C20.9208 13.8354 20.6875 13.9375 20.4125 13.9375H14.3125ZM9.5 19.675C9.05833 19.675 8.63958 19.5771 8.24375 19.3812C7.84792 19.1854 7.47917 18.9458 7.1375 18.6625C7.04583 18.5792 6.94583 18.5229 6.8375 18.4937C6.72917 18.4646 6.62083 18.45 6.5125 18.45C6.40417 18.45 6.29583 18.4708 6.1875 18.5125C6.07917 18.5542 5.98333 18.6167 5.9 18.7C5.76667 18.825 5.62292 18.9354 5.46875 19.0312C5.31458 19.1271 5.15833 19.2167 5 19.3C4.575 19 4.18542 18.6417 3.83125 18.225C3.47708 17.8083 3.2 17.3542 3 16.8625C2.86667 16.5542 2.88958 16.2604 3.06875 15.9812C3.24792 15.7021 3.51667 15.5625 3.875 15.5625H21.125C21.4417 15.5625 21.6979 15.6896 21.8938 15.9437C22.0896 16.1979 22.1375 16.4792 22.0375 16.7875C21.8458 17.2625 21.5625 17.7271 21.1875 18.1812C20.8125 18.6354 20.4167 19.0083 20 19.3C19.8417 19.2167 19.6854 19.1271 19.5312 19.0312C19.3771 18.9354 19.2333 18.825 19.1 18.7C19.0167 18.6167 18.9208 18.5542 18.8125 18.5125C18.7042 18.4708 18.5958 18.45 18.4875 18.45C18.3792 18.45 18.2708 18.4625 18.1625 18.4875C18.0542 18.5125 17.9542 18.5667 17.8625 18.65C17.5208 18.9333 17.1521 19.175 16.7563 19.375C16.3604 19.575 15.9417 19.675 15.5 19.675C15.05 19.675 14.6208 19.5729 14.2125 19.3687C13.8042 19.1646 13.4292 18.9167 13.0875 18.625C13.0042 18.55 12.9125 18.4958 12.8125 18.4625C12.7125 18.4292 12.6083 18.4125 12.5 18.4125C12.3917 18.4125 12.2875 18.4292 12.1875 18.4625C12.0875 18.4958 11.9958 18.55 11.9125 18.625C11.5708 18.9167 11.1958 19.1646 10.7875 19.3687C10.3792 19.5729 9.95 19.675 9.5 19.675ZM12.5 22.6C12.0167 22.8833 11.5229 23.0937 11.0188 23.2312C10.5146 23.3687 10.0083 23.4375 9.5 23.4375C8.99167 23.4375 8.48542 23.3687 7.98125 23.2312C7.47708 23.0937 6.98333 22.8833 6.5 22.6C6.01667 22.8833 5.52292 23.0937 5.01875 23.2312C4.51458 23.3687 4.00833 23.4375 3.5 23.4375C3.24167 23.4375 3.02083 23.3458 2.8375 23.1625C2.65417 22.9792 2.5625 22.7583 2.5625 22.5C2.5625 22.25 2.67708 22.0729 2.90625 21.9687C3.13542 21.8646 3.33333 21.7292 3.5 21.5625C3.95833 21.5625 4.4 21.4792 4.825 21.3125C5.25 21.1458 5.6625 20.9542 6.0625 20.7375C6.1375 20.7042 6.20833 20.6771 6.275 20.6562C6.34167 20.6354 6.41667 20.625 6.5 20.625C6.58333 20.625 6.65833 20.6354 6.725 20.6562C6.79167 20.6771 6.8625 20.7042 6.9375 20.7375C7.3375 20.9542 7.75 21.1417 8.175 21.3C8.6 21.4583 9.04167 21.5375 9.5 21.5375C9.95833 21.5375 10.4 21.4583 10.825 21.3C11.25 21.1417 11.6625 20.9542 12.0625 20.7375C12.1375 20.7042 12.2083 20.6771 12.275 20.6562C12.3417 20.6354 12.4167 20.625 12.5 20.625C12.5833 20.625 12.6583 20.6354 12.725 20.6562C12.7917 20.6771 12.8625 20.7042 12.9375 20.7375C13.3375 20.9542 13.75 21.1417 14.175 21.3C14.6 21.4583 15.0417 21.5375 15.5 21.5375C15.9583 21.5375 16.4 21.4583 16.825 21.3C17.25 21.1417 17.6625 20.9542 18.0625 20.7375C18.1125 20.7125 18.2583 20.675 18.5 20.625C18.5417 20.625 18.6875 20.6625 18.9375 20.7375C19.3375 20.9542 19.75 21.1458 20.175 21.3125C20.6 21.4792 21.0417 21.5625 21.5 21.5625C21.7583 21.5625 21.9792 21.6542 22.1625 21.8375C22.3458 22.0208 22.4375 22.2417 22.4375 22.5C22.4375 22.75 22.3229 22.9271 22.0938 23.0312C21.8646 23.1354 21.6667 23.2708 21.5 23.4375C20.9917 23.4375 20.4854 23.3687 19.9813 23.2312C19.4771 23.0937 18.9833 22.8833 18.5 22.6C18.0167 22.8833 17.5229 23.0937 17.0188 23.2312C16.5146 23.3687 16.0083 23.4375 15.5 23.4375C14.9917 23.4375 14.4854 23.3687 13.9812 23.2312C13.4771 23.0937 12.9833 22.8833 12.5 22.6Z" fill="#D7D7D7"/>
</g>
</svg>
