<svg width="25" height="24" viewBox="0 0 25 24" fill="none" xmlns="http://www.w3.org/2000/svg">
<mask id="mask0_133_8260" style="mask-type:alpha" maskUnits="userSpaceOnUse" x="0" y="0" width="25" height="24">
<rect x="0.92749" width="24" height="24" fill="#D9D9D9"/>
</mask>
<g mask="url(#mask0_133_8260)">
<path d="M12.9275 18L8.72749 19.8C8.06082 20.0833 7.42749 20.0292 6.82749 19.6375C6.22749 19.2458 5.92749 18.6917 5.92749 17.975V5C5.92749 4.45 6.12332 3.97917 6.51499 3.5875C6.90666 3.19583 7.37749 3 7.92749 3H17.9275C18.4775 3 18.9483 3.19583 19.34 3.5875C19.7317 3.97917 19.9275 4.45 19.9275 5V17.975C19.9275 18.6917 19.6275 19.2458 19.0275 19.6375C18.4275 20.0292 17.7942 20.0833 17.1275 19.8L12.9275 18Z" fill="#E8E8E8"/>
</g>
</svg>
