<svg width="25" height="25" viewBox="0 0 25 25" fill="none" xmlns="http://www.w3.org/2000/svg">
<mask id="mask0_26_1561" style="mask-type:alpha" maskUnits="userSpaceOnUse" x="0" y="0" width="25" height="25">
<rect x="0.5" y="0.5" width="24" height="24" fill="#D9D9D9"/>
</mask>
<g mask="url(#mask0_26_1561)">
<path d="M13.6501 21.3375V19.2625H17.3501V21.3375C17.3501 21.5959 17.2584 21.8167 17.0751 22C16.8918 22.1834 16.6709 22.275 16.4126 22.275H14.5876C14.3293 22.275 14.1084 22.1834 13.9251 22C13.7418 21.8167 13.6501 21.5959 13.6501 21.3375ZM7.65011 21.3375V18.325H2.53761C2.16261 18.325 1.88761 18.1584 1.71261 17.825C1.53761 17.4917 1.55428 17.1709 1.76261 16.8625L4.67511 12.425H4.53761C4.17094 12.425 3.90011 12.2604 3.72511 11.9313C3.55011 11.6021 3.57094 11.2834 3.78761 10.975L8.72511 3.92502C8.81678 3.79169 8.93344 3.69169 9.07511 3.62502C9.21678 3.55836 9.35844 3.52502 9.50011 3.52502C9.64178 3.52502 9.78344 3.55836 9.92511 3.62502C10.0668 3.69169 10.1834 3.79169 10.2751 3.92502L15.2126 10.975C15.4293 11.2834 15.4501 11.6021 15.2751 11.9313C15.1001 12.2604 14.8293 12.425 14.4626 12.425H14.3251L17.2501 16.8625C17.4584 17.1709 17.4751 17.4917 17.3001 17.825C17.1251 18.1584 16.8501 18.325 16.4751 18.325H11.3501V21.3375C11.3501 21.5959 11.2584 21.8167 11.0751 22C10.8918 22.1834 10.6709 22.275 10.4126 22.275H8.58761C8.32928 22.275 8.10844 22.1834 7.92511 22C7.74178 21.8167 7.65011 21.5959 7.65011 21.3375ZM19.3501 18.325L16.0751 13.3625H16.2126C16.5876 13.3625 16.8647 13.1938 17.0439 12.8563C17.223 12.5188 17.2043 12.1959 16.9876 11.8875L13.0751 6.30002L14.7251 3.92502C14.8168 3.79169 14.9334 3.69169 15.0751 3.62502C15.2168 3.55836 15.3584 3.52502 15.5001 3.52502C15.6418 3.52502 15.7834 3.55836 15.9251 3.62502C16.0668 3.69169 16.1834 3.79169 16.2751 3.92502L21.2126 10.975C21.4293 11.2834 21.4501 11.6021 21.2751 11.9313C21.1001 12.2604 20.8293 12.425 20.4626 12.425H20.3251L23.2376 16.8625C23.4459 17.1709 23.4626 17.4917 23.2876 17.825C23.1126 18.1584 22.8376 18.325 22.4626 18.325H19.3501Z" fill="#D7D7D7"/>
</g>
</svg>
