<svg width="24" height="25" viewBox="0 0 24 25" fill="none" xmlns="http://www.w3.org/2000/svg">
<mask id="mask0_26_1571" style="mask-type:alpha" maskUnits="userSpaceOnUse" x="0" y="0" width="24" height="25">
<rect y="0.5" width="24" height="24" fill="#D9D9D9"/>
</mask>
<g mask="url(#mask0_26_1571)">
<path d="M2.0625 21.5V18.475C2.0625 18.275 2.09375 18.0792 2.15625 17.8875C2.21875 17.6959 2.3125 17.5167 2.4375 17.35L10.825 6.05003L9.65 4.46253C9.575 4.3542 9.52292 4.2417 9.49375 4.12503C9.46458 4.00836 9.45625 3.8917 9.46875 3.77503C9.48125 3.65836 9.51875 3.54378 9.58125 3.43128C9.64375 3.31878 9.72917 3.22503 9.8375 3.15003C10.0458 2.9917 10.2771 2.93128 10.5312 2.96878C10.7854 3.00628 10.9917 3.1292 11.15 3.33753L12 4.47503L12.85 3.33753C13.0083 3.1292 13.2125 3.00628 13.4625 2.96878C13.7125 2.93128 13.9458 2.9917 14.1625 3.15003C14.3708 3.30836 14.4917 3.51461 14.525 3.76878C14.5583 4.02295 14.5 4.2542 14.35 4.46253L13.175 6.05003L21.5625 17.35C21.6875 17.5167 21.7812 17.6959 21.8438 17.8875C21.9062 18.0792 21.9375 18.275 21.9375 18.475V21.5C21.9375 21.7584 21.8458 21.9792 21.6625 22.1625C21.4792 22.3459 21.2583 22.4375 21 22.4375H3C2.74167 22.4375 2.52083 22.3459 2.3375 22.1625C2.15417 21.9792 2.0625 21.7584 2.0625 21.5ZM8.1875 20.5625H15.8125L12 15.225L8.1875 20.5625Z" fill="#D7D7D7"/>
</g>
</svg>
