<svg width="25" height="24" viewBox="0 0 25 24" fill="none" xmlns="http://www.w3.org/2000/svg">
<mask id="mask0_133_8265" style="mask-type:alpha" maskUnits="userSpaceOnUse" x="0" y="0" width="25" height="24">
<rect x="0.593994" width="24" height="24" fill="#D9D9D9"/>
</mask>
<g mask="url(#mask0_133_8265)">
<path d="M12.5952 12.975C12.3194 12.975 12.0877 12.8817 11.9002 12.695C11.7127 12.5085 11.619 12.2773 11.619 12.0013C11.619 11.7254 11.7123 11.4938 11.899 11.3063C12.0855 11.1188 12.3167 11.025 12.5927 11.025C12.8686 11.025 13.1002 11.1183 13.2877 11.305C13.4752 11.4915 13.569 11.7228 13.569 11.9988C13.569 12.2746 13.4757 12.5063 13.289 12.6938C13.1025 12.8813 12.8712 12.975 12.5952 12.975ZM12.594 21.75C11.2455 21.75 9.97824 21.4937 8.79224 20.981C7.60641 20.4682 6.57483 19.7723 5.69749 18.8935C4.82016 18.0145 4.12524 16.9826 3.61274 15.7978C3.10024 14.6131 2.84399 13.3472 2.84399 12C2.84399 10.6515 3.10033 9.38425 3.61299 8.19825C4.12583 7.01242 4.82166 5.98083 5.70049 5.1035C6.57949 4.22617 7.61141 3.53125 8.79624 3.01875C9.98091 2.50625 11.2468 2.25 12.594 2.25C13.9425 2.25 15.2097 2.50633 16.3957 3.019C17.5816 3.53183 18.6132 4.22767 19.4905 5.1065C20.3678 5.9855 21.0627 7.01742 21.5752 8.20225C22.0877 9.38692 22.344 10.6528 22.344 12C22.344 13.3485 22.0877 14.6158 21.575 15.8018C21.0622 16.9876 20.3663 18.0192 19.4875 18.8965C18.6085 19.7738 17.5766 20.4688 16.3917 20.9813C15.2071 21.4938 13.9412 21.75 12.594 21.75ZM12.594 19.875C14.7857 19.875 16.6461 19.1104 18.1752 17.5813C19.7044 16.0521 20.469 14.1917 20.469 12C20.469 9.80833 19.7044 7.94792 18.1752 6.41875C16.6461 4.88958 14.7857 4.125 12.594 4.125C10.4023 4.125 8.54191 4.88958 7.01274 6.41875C5.48358 7.94792 4.71899 9.80833 4.71899 12C4.71899 14.1917 5.48358 16.0521 7.01274 17.5813C8.54191 19.1104 10.4023 19.875 12.594 19.875ZM12.594 19.875C10.4023 19.875 8.54191 19.1104 7.01274 17.5813C5.48358 16.0521 4.71899 14.1917 4.71899 12C4.71899 9.80833 5.48358 7.94792 7.01274 6.41875C8.54191 4.88958 10.4023 4.125 12.594 4.125C14.7857 4.125 16.6461 4.88958 18.1752 6.41875C19.7044 7.94792 20.469 9.80833 20.469 12C20.469 14.1917 19.7044 16.0521 18.1752 17.5813C16.6461 19.1104 14.7857 19.875 12.594 19.875ZM14.219 14.0625C14.3107 14.0208 14.3961 13.9604 14.4752 13.8813C14.5544 13.8021 14.6148 13.7167 14.6565 13.625L17.5065 7.5875C17.5898 7.42083 17.569 7.275 17.444 7.15C17.319 7.025 17.1732 7.00417 17.0065 7.0875L10.969 9.9375C10.8773 9.97917 10.7919 10.0396 10.7127 10.1188C10.6336 10.1979 10.5732 10.2833 10.5315 10.375L7.68149 16.4125C7.59816 16.5792 7.61899 16.725 7.74399 16.85C7.86899 16.975 8.01483 16.9958 8.18149 16.9125L14.219 14.0625Z" fill="#E8E8E8"/>
</g>
</svg>
