<svg width="25" height="24" viewBox="0 0 25 24" fill="none" xmlns="http://www.w3.org/2000/svg">
<mask id="mask0_133_8255" style="mask-type:alpha" maskUnits="userSpaceOnUse" x="0" y="0" width="25" height="24">
<rect x="0.260742" width="24" height="24" fill="#D9D9D9"/>
</mask>
<g mask="url(#mask0_133_8255)">
<path d="M4.48584 18.9001V10.0251C4.48584 9.7251 4.55042 9.44385 4.67959 9.18135C4.80876 8.91885 4.99417 8.7001 5.23584 8.5251L11.1358 4.1001C11.4692 3.8501 11.8442 3.7251 12.2608 3.7251C12.6775 3.7251 13.0525 3.8501 13.3858 4.1001L19.2858 8.5251C19.5275 8.7001 19.7129 8.91885 19.8421 9.18135C19.9713 9.44385 20.0358 9.7251 20.0358 10.0251V18.9001C20.0358 19.4168 19.8525 19.8584 19.4858 20.2251C19.1192 20.5918 18.6775 20.7751 18.1608 20.7751H15.2608C15.0025 20.7751 14.7817 20.6834 14.5983 20.5001C14.415 20.3168 14.3233 20.0959 14.3233 19.8376V14.8126C14.3233 14.5543 14.2317 14.3334 14.0483 14.1501C13.865 13.9668 13.6442 13.8751 13.3858 13.8751H11.1358C10.8775 13.8751 10.6567 13.9668 10.4733 14.1501C10.29 14.3334 10.1983 14.5543 10.1983 14.8126V19.8376C10.1983 20.0959 10.1067 20.3168 9.92334 20.5001C9.74001 20.6834 9.51917 20.7751 9.26084 20.7751H6.36084C5.84417 20.7751 5.40251 20.5918 5.03584 20.2251C4.66917 19.8584 4.48584 19.4168 4.48584 18.9001Z" fill="#16A6C2"/>
</g>
</svg>
