<svg width="25" height="25" viewBox="0 0 25 25" fill="none" xmlns="http://www.w3.org/2000/svg">
<mask id="mask0_26_1536" style="mask-type:alpha" maskUnits="userSpaceOnUse" x="0" y="0" width="25" height="25">
<rect x="0.5" y="0.5" width="24" height="24" fill="#D9D9D9"/>
</mask>
<g mask="url(#mask0_26_1536)">
<path d="M2.96239 16.825L6.83739 11.675C6.93122 11.55 7.04472 11.4563 7.17789 11.3938C7.31089 11.3313 7.4478 11.3 7.58864 11.3C7.72947 11.3 7.86614 11.3313 7.99864 11.3938C8.13097 11.4563 8.24389 11.55 8.33739 11.675L11.6249 16.075C11.7166 16.2 11.8291 16.2937 11.9624 16.3562C12.0957 16.4187 12.2374 16.45 12.3874 16.45C12.7819 16.45 13.066 16.2729 13.2396 15.9187C13.4131 15.5646 13.3791 15.2333 13.1374 14.925L11.1624 12.3125C11.0374 12.1458 10.9749 11.9583 10.9749 11.75C10.9749 11.5417 11.0374 11.3542 11.1624 11.1875L13.7374 7.75C13.8312 7.625 13.9447 7.53125 14.0779 7.46875C14.2109 7.40625 14.3478 7.375 14.4886 7.375C14.6295 7.375 14.7661 7.40625 14.8986 7.46875C15.031 7.53125 15.1439 7.625 15.2374 7.75L22.0374 16.825C22.2707 17.1333 22.3016 17.4604 22.1299 17.8063C21.9582 18.1521 21.6774 18.325 21.2874 18.325H3.71239C3.32239 18.325 3.04155 18.1521 2.86989 17.8063C2.69822 17.4604 2.72905 17.1333 2.96239 16.825Z" fill="#D7D7D7"/>
</g>
</svg>
