<svg width="24" height="25" viewBox="0 0 24 25" fill="none" xmlns="http://www.w3.org/2000/svg">
<mask id="mask0_26_1541" style="mask-type:alpha" maskUnits="userSpaceOnUse" x="0" y="0" width="24" height="25">
<rect y="0.5" width="24" height="24" fill="#D9D9D9"/>
</mask>
<g mask="url(#mask0_26_1541)">
<path d="M11.075 18.125L8.46245 20.7125C8.28745 20.8875 8.07078 20.975 7.81245 20.975C7.55412 20.975 7.33745 20.8792 7.16245 20.6875C6.97912 20.5042 6.88745 20.2875 6.88745 20.0375C6.88745 19.7875 6.98328 19.5667 7.17495 19.375L11.075 15.475V13.425H9.02495L5.09995 17.35C4.92495 17.525 4.71245 17.6125 4.46245 17.6125C4.21245 17.6125 3.99162 17.5209 3.79995 17.3375C3.61662 17.1625 3.52495 16.9459 3.52495 16.6875C3.52495 16.4292 3.61662 16.2084 3.79995 16.025L6.37495 13.425H3.11245C2.85412 13.425 2.63745 13.3355 2.46245 13.1563C2.28745 12.9771 2.19995 12.7542 2.19995 12.4875C2.19995 12.2292 2.28953 12.0084 2.4687 11.825C2.64787 11.6417 2.87078 11.55 3.13745 11.55H6.37495L3.78745 8.96255C3.61245 8.78755 3.52495 8.57088 3.52495 8.31255C3.52495 8.05422 3.62078 7.83338 3.81245 7.65005C3.99578 7.47505 4.21245 7.38755 4.46245 7.38755C4.71245 7.38755 4.93328 7.47922 5.12495 7.66255L9.02495 11.55H11.075V9.50005L7.14995 5.60005C6.97495 5.42505 6.88745 5.21255 6.88745 4.96255C6.88745 4.71255 6.97912 4.49172 7.16245 4.30005C7.33745 4.11672 7.55412 4.02505 7.81245 4.02505C8.07078 4.02505 8.29162 4.11672 8.47495 4.30005L11.075 6.85005V3.61255C11.075 3.35422 11.1645 3.13338 11.3437 2.95005C11.5229 2.76672 11.7458 2.67505 12.0125 2.67505C12.2708 2.67505 12.4916 2.76672 12.675 2.95005C12.8583 3.13338 12.95 3.35422 12.95 3.61255V6.85005L15.5375 4.28755C15.7125 4.11255 15.9291 4.02505 16.1875 4.02505C16.4458 4.02505 16.6666 4.11672 16.85 4.30005C17.025 4.49172 17.1125 4.71255 17.1125 4.96255C17.1125 5.21255 17.0208 5.42922 16.8375 5.61255L12.95 9.50005V11.55H15L18.9 7.65005C19.075 7.47505 19.2875 7.38755 19.5375 7.38755C19.7875 7.38755 20.0083 7.47922 20.2 7.66255C20.3833 7.83755 20.475 8.05422 20.475 8.31255C20.475 8.57088 20.3833 8.79172 20.2 8.97505L17.65 11.55H20.8875C21.1458 11.55 21.3666 11.6417 21.55 11.825C21.7333 12.0084 21.825 12.2292 21.825 12.4875C21.825 12.7542 21.7333 12.9771 21.55 13.1563C21.3666 13.3355 21.1458 13.425 20.8875 13.425H17.65L20.2125 16.0375C20.3875 16.2125 20.475 16.4292 20.475 16.6875C20.475 16.9459 20.3833 17.1625 20.2 17.3375C20.0083 17.5209 19.7875 17.6125 19.5375 17.6125C19.2875 17.6125 19.0708 17.5167 18.8875 17.325L15 13.425H12.95V15.475L16.85 19.4C17.025 19.575 17.1125 19.7875 17.1125 20.0375C17.1125 20.2875 17.0208 20.5084 16.8375 20.7C16.6625 20.8834 16.4458 20.975 16.1875 20.975C15.9291 20.975 15.7083 20.8834 15.525 20.7L12.95 18.125V21.3875C12.95 21.6459 12.8583 21.8626 12.675 22.0375C12.4916 22.2125 12.2708 22.3 12.0125 22.3C11.7458 22.3 11.5229 22.2105 11.3437 22.0313C11.1645 21.8521 11.075 21.6292 11.075 21.3625V18.125Z" fill="#D7D7D7"/>
</g>
</svg>
