<svg width="25" height="25" viewBox="0 0 25 25" fill="none" xmlns="http://www.w3.org/2000/svg">
<mask id="mask0_133_8194" style="mask-type:alpha" maskUnits="userSpaceOnUse" x="0" y="0" width="25" height="25">
<rect x="0.283691" y="0.575928" width="24" height="24" fill="#E8E8E8"/>
</mask>
<g mask="url(#mask0_133_8194)">
<path d="M5.38379 19.3884C5.12546 19.3884 4.90462 19.2967 4.72129 19.1134C4.53796 18.93 4.44629 18.7092 4.44629 18.4509C4.44629 18.1925 4.53796 17.9717 4.72129 17.7884C4.90462 17.605 5.12546 17.5134 5.38379 17.5134H6.32129V10.7384C6.32129 9.35505 6.74004 8.12588 7.57754 7.05088C8.41504 5.97588 9.50046 5.26755 10.8338 4.92588V4.27588C10.8338 3.87588 10.9755 3.5363 11.2588 3.25713C11.5421 2.97796 11.8838 2.83838 12.2838 2.83838C12.6838 2.83838 13.0255 2.97796 13.3088 3.25713C13.5921 3.5363 13.7338 3.87588 13.7338 4.27588V4.92588C15.0671 5.26755 16.1525 5.97588 16.99 7.05088C17.8275 8.12588 18.2463 9.35505 18.2463 10.7384V17.5134H19.1838C19.4421 17.5134 19.663 17.605 19.8463 17.7884C20.0296 17.9717 20.1213 18.1925 20.1213 18.4509C20.1213 18.7092 20.0296 18.93 19.8463 19.1134C19.663 19.2967 19.4421 19.3884 19.1838 19.3884H5.38379ZM12.2838 22.2759C11.7421 22.2759 11.2817 22.0863 10.9025 21.7071C10.5234 21.328 10.3338 20.8675 10.3338 20.3259H14.2338C14.2338 20.8675 14.0442 21.328 13.665 21.7071C13.2859 22.0863 12.8255 22.2759 12.2838 22.2759Z" fill="#E8E8E8"/>
</g>
</svg>
