<svg width="24" height="25" viewBox="0 0 24 25" fill="none" xmlns="http://www.w3.org/2000/svg">
<mask id="mask0_26_1526" style="mask-type:alpha" maskUnits="userSpaceOnUse" x="0" y="0" width="24" height="25">
<rect y="0.5" width="24" height="24" fill="#D9D9D9"/>
</mask>
<g mask="url(#mask0_26_1526)">
<path d="M18.8124 20.5876L13.9124 15.6876C13.7291 15.5042 13.6374 15.2834 13.6374 15.0251C13.6374 14.7667 13.7291 14.5459 13.9124 14.3626C14.0957 14.1792 14.3166 14.0876 14.5749 14.0876C14.8332 14.0876 15.0541 14.1792 15.2374 14.3626L20.1374 19.2626C20.3207 19.4459 20.4124 19.6667 20.4124 19.9251C20.4124 20.1834 20.3207 20.4042 20.1374 20.5876C19.9541 20.7709 19.7332 20.8626 19.4749 20.8626C19.2166 20.8626 18.9957 20.7709 18.8124 20.5876ZM7.32491 19.2501C6.96658 19.6084 6.54783 19.7792 6.06866 19.7626C5.58949 19.7459 5.21658 19.5376 4.94991 19.1376C3.89158 17.6042 3.31449 15.9251 3.21866 14.1001C3.12283 12.2751 3.50824 10.5584 4.37491 8.95006C4.42491 9.50006 4.56658 10.1188 4.79991 10.8063C5.03324 11.4938 5.34574 12.2167 5.73741 12.9751C6.12908 13.7334 6.59783 14.5084 7.14366 15.3001C7.68949 16.0917 8.28741 16.8709 8.93741 17.6376L7.32491 19.2501ZM10.2249 16.3501C9.44991 15.5834 8.77074 14.7396 8.18741 13.8188C7.60407 12.898 7.14574 12.0042 6.81241 11.1376C6.47908 10.2709 6.29158 9.48131 6.24991 8.76881C6.20824 8.05631 6.35824 7.52506 6.69991 7.17506C7.04158 6.81672 7.57283 6.65214 8.29366 6.68131C9.01449 6.71047 9.81449 6.89172 10.6937 7.22506C11.5728 7.55839 12.4749 8.01881 13.3999 8.60631C14.3249 9.19381 15.1666 9.87506 15.9249 10.6501L10.2249 16.3501ZM18.6749 5.41256C19.0666 5.67922 19.2728 6.05006 19.2937 6.52506C19.3145 7.00006 19.1457 7.41672 18.7874 7.77506L17.1999 9.36256C16.4499 8.70422 15.6791 8.11047 14.8874 7.58131C14.0957 7.05214 13.3207 6.58964 12.5624 6.19381C11.8041 5.79797 11.0812 5.48339 10.3937 5.25006C9.70616 5.01672 9.08324 4.87506 8.52491 4.82506C10.1249 3.99172 11.8374 3.62297 13.6624 3.71881C15.4874 3.81464 17.1582 4.37922 18.6749 5.41256Z" fill="#D7D7D7"/>
</g>
</svg>
