<svg width="25" height="24" viewBox="0 0 25 24" fill="none" xmlns="http://www.w3.org/2000/svg">
<mask id="mask0_133_8270" style="mask-type:alpha" maskUnits="userSpaceOnUse" x="0" y="0" width="25" height="24">
<rect x="0.260742" width="24" height="24" fill="#D9D9D9"/>
</mask>
<g mask="url(#mask0_133_8270)">
<path d="M12.2608 12.0249C11.1858 12.0249 10.2713 11.6478 9.51709 10.8937C8.76292 10.1395 8.38584 9.2249 8.38584 8.1499C8.38584 7.0749 8.76292 6.16032 9.51709 5.40615C10.2713 4.65199 11.1858 4.2749 12.2608 4.2749C13.3358 4.2749 14.2504 4.65199 15.0046 5.40615C15.7588 6.16032 16.1358 7.0749 16.1358 8.1499C16.1358 9.2249 15.7588 10.1395 15.0046 10.8937C14.2504 11.6478 13.3358 12.0249 12.2608 12.0249ZM4.48584 17.7999V17.0242C4.48584 16.4747 4.62542 15.9728 4.90459 15.5187C5.18376 15.0645 5.56101 14.7165 6.03634 14.4747C7.05267 13.9748 8.07959 13.5978 9.11709 13.3437C10.1546 13.0895 11.2025 12.9624 12.2608 12.9624C13.3192 12.9624 14.3671 13.0895 15.4046 13.3437C16.4421 13.5978 17.469 13.9748 18.4853 14.4747C18.9607 14.7165 19.3379 15.0645 19.6171 15.5187C19.8963 15.9728 20.0358 16.4747 20.0358 17.0242V17.7999C20.0358 18.3156 19.8523 18.757 19.4851 19.1242C19.1179 19.4913 18.6765 19.6749 18.1608 19.6749H6.36084C5.84517 19.6749 5.40376 19.4913 5.03659 19.1242C4.66942 18.757 4.48584 18.3156 4.48584 17.7999Z" fill="#E8E8E8"/>
</g>
</svg>
