<svg width="25" height="25" viewBox="0 0 25 25" fill="none" xmlns="http://www.w3.org/2000/svg">
<mask id="mask0_26_1551" style="mask-type:alpha" maskUnits="userSpaceOnUse" x="0" y="0" width="25" height="25">
<rect x="0.5" y="0.5" width="24" height="24" fill="#D9D9D9"/>
</mask>
<g mask="url(#mask0_26_1551)">
<path d="M7.3752 20.325C6.89603 20.325 6.48878 20.1572 6.15345 19.8217C5.81795 19.4864 5.6502 19.0791 5.6502 18.6C5.6502 18.2583 5.74603 17.9437 5.9377 17.6562C6.12936 17.3687 6.38353 17.1583 6.7002 17.025L10.5752 15.5V13.125C9.7752 14.0666 8.88353 14.8083 7.9002 15.35C6.91686 15.8916 5.8502 16.225 4.7002 16.35C4.43036 16.3833 4.1962 16.3104 3.9977 16.1312C3.79936 15.952 3.7002 15.7302 3.7002 15.4657C3.7002 15.2014 3.7872 14.9759 3.9612 14.7892C4.13503 14.6025 4.35636 14.4936 4.6252 14.4625C5.53353 14.3375 6.36895 14.0562 7.13145 13.6187C7.89395 13.1812 8.58495 12.5926 9.20445 11.853L10.5252 10.275C10.7085 10.0666 10.9282 9.90203 11.1842 9.7812C11.4402 9.66037 11.7122 9.59995 12.0002 9.59995H13.0002C13.2882 9.59995 13.5602 9.66037 13.8162 9.7812C14.0722 9.90203 14.2919 10.0666 14.4752 10.275L15.7959 11.853C16.4154 12.5926 17.1064 13.1812 17.8689 13.6187C18.6314 14.0562 19.4669 14.3375 20.3752 14.4625C20.644 14.4936 20.8654 14.6025 21.0392 14.7892C21.2132 14.9759 21.3002 15.2014 21.3002 15.4657C21.3002 15.7302 21.201 15.952 21.0027 16.1312C20.8042 16.3104 20.57 16.3833 20.3002 16.35C19.1502 16.225 18.0835 15.8916 17.1002 15.35C16.1169 14.8083 15.2252 14.0666 14.4252 13.125V15.5L18.3002 17.025C18.6169 17.1583 18.871 17.3687 19.0627 17.6562C19.2544 17.9437 19.3502 18.2583 19.3502 18.6C19.3502 19.0791 19.1825 19.4864 18.8472 19.8217C18.5117 20.1572 18.1044 20.325 17.6252 20.325H10.5252V19.8467C10.5252 19.4322 10.6669 19.0833 10.9502 18.8C11.2335 18.5166 11.5835 18.375 12.0002 18.375H14.9752C15.1177 18.375 15.2325 18.3315 15.3197 18.2445C15.4067 18.1576 15.4502 18.043 15.4502 17.9007C15.4502 17.7585 15.4067 17.6437 15.3197 17.5562C15.2325 17.4687 15.1177 17.425 14.9752 17.425H12.0029C11.3094 17.425 10.7314 17.6562 10.2689 18.1187C9.80645 18.5812 9.5752 19.1583 9.5752 19.85V20.325H7.3752ZM12.5002 8.59995C11.9585 8.59995 11.4981 8.41037 11.1189 8.0312C10.7398 7.65203 10.5502 7.19162 10.5502 6.64995C10.5502 6.10828 10.7398 5.64787 11.1189 5.2687C11.4981 4.88953 11.9585 4.69995 12.5002 4.69995C13.0419 4.69995 13.5023 4.88953 13.8814 5.2687C14.2606 5.64787 14.4502 6.10828 14.4502 6.64995C14.4502 7.19162 14.2606 7.65203 13.8814 8.0312C13.5023 8.41037 13.0419 8.59995 12.5002 8.59995Z" fill="#D7D7D7"/>
</g>
</svg>
