<svg width="25" height="25" viewBox="0 0 25 25" fill="none" xmlns="http://www.w3.org/2000/svg">
<mask id="mask0_26_1546" style="mask-type:alpha" maskUnits="userSpaceOnUse" x="0" y="0" width="25" height="25">
<rect x="0.5" y="0.5" width="24" height="24" fill="#D9D9D9"/>
</mask>
<g mask="url(#mask0_26_1546)">
<path d="M19.0125 23.4375C18.5875 23.4375 18.1729 23.4042 17.7688 23.3375C17.3646 23.2709 16.9709 23.1709 16.5875 23.0375L3.23753 18.175C3.06253 18.1 2.93128 17.9792 2.84378 17.8125C2.75628 17.6459 2.74586 17.4709 2.81253 17.2875C2.88753 17.1042 3.01045 16.9709 3.18128 16.8875C3.35211 16.8042 3.5292 16.8 3.71253 16.875L9.95003 19.15L11.7125 14.6125L8.11253 10.8625C7.67086 10.4125 7.49378 9.87505 7.58128 9.25005C7.66878 8.62505 7.98753 8.15005 8.53753 7.82505L12.025 5.82505C12.2917 5.67505 12.5688 5.58963 12.8563 5.5688C13.1438 5.54797 13.4209 5.59172 13.6875 5.70005C13.9542 5.80005 14.1896 5.95213 14.3938 6.1563C14.5979 6.36047 14.75 6.60838 14.85 6.90005L15.175 7.96255C15.4 8.69588 15.7667 9.34588 16.275 9.91255C16.7834 10.4792 17.3917 10.9042 18.1 11.1875L18.4125 10.225C18.4709 10.0417 18.5834 9.9063 18.75 9.8188C18.9167 9.7313 19.0917 9.71672 19.275 9.77505C19.4584 9.83338 19.5938 9.94797 19.6813 10.1188C19.7688 10.2896 19.7834 10.4667 19.725 10.65L18.85 13.325C17.6417 13.1167 16.5688 12.6292 15.6313 11.8625C14.6938 11.0959 14 10.1459 13.55 9.01255L10.8875 10.5375L13.5625 13.5875C13.6875 13.7209 13.7625 13.873 13.7875 14.0438C13.8125 14.2146 13.7917 14.3834 13.725 14.55L11.7 19.7875L14.925 20.95L17.0625 14.4375C17.2709 14.5125 17.4834 14.5792 17.7 14.6375C17.9167 14.6959 18.1375 14.75 18.3625 14.8L16.2125 21.4375L17.0375 21.7375C17.3459 21.8459 17.6625 21.9271 17.9875 21.9813C18.3125 22.0355 18.6542 22.0625 19.0125 22.0625C19.3042 22.0625 19.5875 22.0438 19.8625 22.0063C20.1375 21.9688 20.4125 21.9084 20.6875 21.825C20.8792 21.7667 21.0604 21.775 21.2313 21.85C21.4021 21.9251 21.5209 22.0501 21.5875 22.225C21.6542 22.4167 21.6438 22.6 21.5563 22.775C21.4688 22.95 21.3292 23.0667 21.1375 23.125C20.8042 23.225 20.4604 23.3021 20.1063 23.3563C19.7521 23.4105 19.3875 23.4375 19.0125 23.4375ZM17.0125 6.95005C16.4709 6.95005 16.0104 6.76047 15.6313 6.3813C15.2521 6.00213 15.0625 5.54172 15.0625 5.00005C15.0625 4.45838 15.2521 3.99797 15.6313 3.6188C16.0104 3.23963 16.4709 3.05005 17.0125 3.05005C17.5542 3.05005 18.0146 3.23963 18.3938 3.6188C18.7729 3.99797 18.9625 4.45838 18.9625 5.00005C18.9625 5.54172 18.7729 6.00213 18.3938 6.3813C18.0146 6.76047 17.5542 6.95005 17.0125 6.95005Z" fill="#D7D7D7"/>
</g>
</svg>
