<svg width="25" height="25" fill="none" xmlns="http://www.w3.org/2000/svg"><mask id="a" style="mask-type:alpha" maskUnits="userSpaceOnUse" x="0" y="0" width="25" height="25"><path fill="#D9D9D9" d="M.558.31h24v24h-24z"/></mask><g mask="url(#a)"><path d="m8.183 6.71 2.8-3.625c.2-.267.437-.462.712-.587.275-.125.563-.188.863-.188.3 0 .587.063.862.188s.513.32.713.587l2.8 3.625 4.25 1.425c.433.133.775.38 1.025.738.25.358.375.754.375 1.187 0 .2-.03.4-.088.6a1.86 1.86 0 0 1-.287.575l-2.75 3.9.1 4.1c.016.583-.175 1.075-.575 1.475-.4.4-.867.6-1.4.6-.034 0-.217-.025-.55-.075l-4.475-1.25-4.475 1.25a.952.952 0 0 1-.275.063c-.1.008-.192.012-.275.012-.534 0-1-.2-1.4-.6-.4-.4-.592-.892-.575-1.475l.1-4.125-2.725-3.875a1.862 1.862 0 0 1-.288-.575c-.058-.2-.087-.4-.087-.6 0-.417.12-.804.362-1.162.242-.359.58-.613 1.013-.763l4.25-1.425Z" fill="#F0F0F0"/></g></svg>