<svg width="25" height="25" viewBox="0 0 25 25" fill="none" xmlns="http://www.w3.org/2000/svg">
<mask id="mask0_26_1521" style="mask-type:alpha" maskUnits="userSpaceOnUse" x="0" y="0" width="25" height="25">
<rect x="0.5" y="0.5" width="24" height="24" fill="#D9D9D9"/>
</mask>
<g mask="url(#mask0_26_1521)">
<path d="M12.5 22.5C10.7333 22.5 9.29167 22.2208 8.175 21.6625C7.05833 21.1042 6.5 20.3833 6.5 19.5C6.5 19.1833 6.57083 18.8917 6.7125 18.625C6.85417 18.3583 7.06667 18.1083 7.35 17.875C7.58333 17.7083 7.8375 17.6417 8.1125 17.675C8.3875 17.7083 8.60833 17.8417 8.775 18.075C8.94167 18.3083 9.00417 18.5625 8.9625 18.8375C8.92083 19.1125 8.78333 19.3333 8.55 19.5C8.76667 19.7667 9.26667 20 10.05 20.2C10.8333 20.4 11.65 20.5 12.5 20.5C13.35 20.5 14.1667 20.4 14.95 20.2C15.7333 20 16.2333 19.7667 16.45 19.5C16.2167 19.3333 16.0792 19.1125 16.0375 18.8375C15.9958 18.5625 16.0583 18.3083 16.225 18.075C16.3917 17.8417 16.6125 17.7083 16.8875 17.675C17.1625 17.6417 17.4167 17.7083 17.65 17.875C17.9333 18.1083 18.1458 18.3583 18.2875 18.625C18.4292 18.8917 18.5 19.1833 18.5 19.5C18.5 20.3833 17.9417 21.1042 16.825 21.6625C15.7083 22.2208 14.2667 22.5 12.5 22.5ZM12.5 19.025C12.3 19.025 12.1 18.9917 11.9 18.925C11.7 18.8583 11.5167 18.7583 11.35 18.625C9.38333 17.0583 7.91667 15.5292 6.95 14.0375C5.98333 12.5458 5.5 11.0833 5.5 9.65C5.5 8.46667 5.7125 7.42917 6.1375 6.5375C6.5625 5.64583 7.10833 4.9 7.775 4.3C8.44167 3.7 9.19167 3.25 10.025 2.95C10.8583 2.65 11.6833 2.5 12.5 2.5C13.3167 2.5 14.1417 2.65 14.975 2.95C15.8083 3.25 16.5583 3.7 17.225 4.3C17.8917 4.9 18.4375 5.64583 18.8625 6.5375C19.2875 7.42917 19.5 8.46667 19.5 9.65C19.5 11.0833 19.0167 12.5458 18.05 14.0375C17.0833 15.5292 15.6167 17.0583 13.65 18.625C13.4833 18.7583 13.3 18.8583 13.1 18.925C12.9 18.9917 12.7 19.025 12.5 19.025ZM12.5 11.5C13.05 11.5 13.5208 11.3042 13.9125 10.9125C14.3042 10.5208 14.5 10.05 14.5 9.5C14.5 8.95 14.3042 8.47917 13.9125 8.0875C13.5208 7.69583 13.05 7.5 12.5 7.5C11.95 7.5 11.4792 7.69583 11.0875 8.0875C10.6958 8.47917 10.5 8.95 10.5 9.5C10.5 10.05 10.6958 10.5208 11.0875 10.9125C11.4792 11.3042 11.95 11.5 12.5 11.5Z" fill="#F0F0F0"/>
</g>
</svg>
