<svg width="24" height="25" viewBox="0 0 24 25" fill="none" xmlns="http://www.w3.org/2000/svg">
<mask id="mask0_26_1556" style="mask-type:alpha" maskUnits="userSpaceOnUse" x="0" y="0" width="24" height="25">
<rect y="0.5" width="24" height="24" fill="#D9D9D9"/>
</mask>
<g mask="url(#mask0_26_1556)">
<path d="M11.0625 19.5625V15.35C9.62917 15.1083 8.4375 14.4437 7.4875 13.3562C6.5375 12.2688 6.0625 10.9833 6.0625 9.5V4.5C6.0625 4.24167 6.15417 4.02083 6.3375 3.8375C6.52083 3.65417 6.74167 3.5625 7 3.5625H17C17.2583 3.5625 17.4792 3.65417 17.6625 3.8375C17.8458 4.02083 17.9375 4.24167 17.9375 4.5V9.5C17.9375 10.9833 17.4625 12.2688 16.5125 13.3562C15.5625 14.4437 14.3708 15.1083 12.9375 15.35V19.5625H15C15.2583 19.5625 15.4792 19.6542 15.6625 19.8375C15.8458 20.0208 15.9375 20.2417 15.9375 20.5C15.9375 20.7583 15.8458 20.9792 15.6625 21.1625C15.4792 21.3458 15.2583 21.4375 15 21.4375H9C8.74167 21.4375 8.52083 21.3458 8.3375 21.1625C8.15417 20.9792 8.0625 20.7583 8.0625 20.5C8.0625 20.2417 8.15417 20.0208 8.3375 19.8375C8.52083 19.6542 8.74167 19.5625 9 19.5625H11.0625ZM7.9375 8.5625H16.0625V5.4375H7.9375V8.5625Z" fill="#D7D7D7"/>
</g>
</svg>
